inDegrees=no
num_controls=7
num_derivatives=13
num_iterations=110
num_multipliers=7
num_parameters=0
num_slacks=7
num_states=26
objective=5.139841
objective_accelerations=0.250163
objective_balance=0.004005
objective_effort=0.288847
objective_height=4.526839
objective_ligament=0.069987
solver_duration=1005.016720
status=Solve_Succeeded
success=true
DataType=double
version=3
OpenSimVersion=4.4-2022-07-23-0e9fedc
endheader
time	/jointset/ground_pelvis/pelvis_tilt/value	/jointset/ground_pelvis/pelvis_tx/value	/jointset/ground_pelvis/pelvis_ty/value	/jointset/hip_r/hip_flexion_r/value	/jointset/hip_r/hip_adduction_r/value	/jointset/hip_r/hip_rotation_r/value	/jointset/back/lumbar_extension/value	/jointset/patellofemoral_r/patellar_flexion_r/value	/jointset/knee_r/knee_flexion_r/value	/jointset/knee_r/knee_adduction_r/value	/jointset/knee_r/knee_rotation_r/value	/jointset/ankle_r/ankle_angle_r/value	/jointset/subtalar_r/subtalar_angle_r/value	/jointset/ground_pelvis/pelvis_tilt/speed	/jointset/ground_pelvis/pelvis_tx/speed	/jointset/ground_pelvis/pelvis_ty/speed	/jointset/hip_r/hip_flexion_r/speed	/jointset/hip_r/hip_adduction_r/speed	/jointset/hip_r/hip_rotation_r/speed	/jointset/back/lumbar_extension/speed	/jointset/patellofemoral_r/patellar_flexion_r/speed	/jointset/knee_r/knee_flexion_r/speed	/jointset/knee_r/knee_adduction_r/speed	/jointset/knee_r/knee_rotation_r/speed	/jointset/ankle_r/ankle_angle_r/speed	/jointset/subtalar_r/subtalar_angle_r/speed	/forceset/tau_hip_flexion_r	/forceset/tau_hip_adduction_r	/forceset/tau_hip_rotation_r	/forceset/tau_knee_flexion_r	/forceset/tau_ankle_angle_r	/forceset/tau_subtalar_angle_r	/forceset/tau_lumbar_extension	lambda_cid13_p0	lambda_cid14_p0	lambda_cid14_p1	lambda_cid14_p2	lambda_cid14_p3	lambda_cid14_p4	lambda_cid14_p5	/jointset/ground_pelvis/pelvis_tilt/accel	/jointset/ground_pelvis/pelvis_tx/accel	/jointset/ground_pelvis/pelvis_ty/accel	/jointset/hip_r/hip_flexion_r/accel	/jointset/hip_r/hip_adduction_r/accel	/jointset/hip_r/hip_rotation_r/accel	/jointset/back/lumbar_extension/accel	/jointset/patellofemoral_r/patellar_flexion_r/accel	/jointset/knee_r/knee_flexion_r/accel	/jointset/knee_r/knee_adduction_r/accel	/jointset/knee_r/knee_rotation_r/accel	/jointset/ankle_r/ankle_angle_r/accel	/jointset/subtalar_r/subtalar_angle_r/accel	gamma_cid13_p0	gamma_cid14_p0	gamma_cid14_p1	gamma_cid14_p2	gamma_cid14_p3	gamma_cid14_p4	gamma_cid14_p5
0	-0.003080225090944455	0.1295130477192373	0.9339626026633571	0.1934208783645156	-0.2212556139069026	-0.2456548706893762	-0.2903791543005566	0.2311793314021748	0.2311793314021609	0.117018716046877	0.173071549761829	0.08934340440958972	0.07252144194458067	0	0	0	0	0	0	0	0	0	0	0	0	0	0.09160710041726088	-0.05459751946156053	0.000379704790156808	-0.2409384946902173	0.1273658455162249	-0.07300143793817736	-0.009225944129757488	-29.88694587611521	-5.40552441519151	-27.90249400648957	-0.553573333985278	-6.552232387575708	-625.2761698921767	51.57052309081265	-0.6034087491884654	-1.202246414616699	-0.5040859435804114	5.776814591425237	0.03506959598125844	1.457939719427575	-5.557622179360207	6.550676423097813	6.550676423097766	-1.822100707032096	0.1557116490928553	1.847537036604181	0.5738707376930476	1.952132921927784e-08	1.08724849914609e-08	-1.377708829948064e-07	1.018928307900275e-07	6.908332316058536e-09	5.576373089850645e-08	-1.248755639170599e-07
0.01	-0.003106923975805847	0.1294536349844226	0.933938155058835	0.1937017809248325	-0.2212527776569923	-0.2455819113216527	-0.290656745852624	0.2315003827346646	0.2315003827347064	0.1169271447620736	0.1730770310957576	0.08943402597231258	0.07255095309462563	-0.005309251395584843	-0.01182879509834751	-0.00487262099991039	0.05591284198648913	0.0005486699762423664	0.01453596087907907	-0.05516416284407325	0.06391365554420325	0.06391365554420286	-0.01818987411272902	0.001083820715902679	0.01803355200993941	0.005853492645415153	0.08757113794841435	-0.06347670599492614	0.0007999198296798188	-0.2360777639052277	0.118506917227102	-0.06317900709943614	-0.00576174191901934	-29.89035068329241	-7.747773337874318	-23.79434253849328	-1.496804565610013	-5.633390500804996	-626.5046897798661	59.75650483811053	-0.4901047910157861	-1.165131895501683	-0.4763040398066458	5.45836895976434	0.06197633268970761	1.44305824071105	-5.44269120198407	6.267214572743249	6.267214572743296	-1.798785386632478	0.08287053373806788	1.767653264780805	0.5837682943919186	2.58559731293147e-08	8.372961332144924e-09	-1.712758656900662e-07	1.187120469944159e-07	1.426755874851586e-08	1.084955042172253e-08	-1.491680354615043e-07
0.02	-0.003185799665885299	0.1292775471310128	0.933865490471989	0.1945337818964927	-0.2212450125804847	-0.2453652655514048	-0.2914753546061443	0.2324516715131437	0.2324516715131454	0.1166574038113637	0.1730929812870062	0.08970226085145948	0.07263753512440954	-0.0104353610419851	-0.02333502371901272	-0.009643396464776115	0.110219682273153	0.000985765322294076	0.02873728050068334	-0.1082034402902936	0.1260474891948739	0.1260474891948742	-0.03563393315500051	0.002093771467764984	0.03552266328355749	0.01141417594787005	0.08353517547933859	-0.07235589252838143	0.001220134869022852	-0.2312170331204336	0.1096479889378637	-0.05335657626083506	-0.002297539708347959	-29.90029738581669	-10.03978743676723	-19.68890308503788	-2.426458377856683	-4.699542419045796	-626.9337815103177	67.76332264008785	-0.566780399351696	-1.137733119080033	-0.4837168365714947	5.455614251460165	0.01275466994310593	1.391011467932637	-5.132645099789774	6.194712044391378	6.19471204439154	-1.672937692940576	0.1409376562847751	1.738648889340202	0.5153088691010591	3.219061703935156e-08	5.873437672828954e-09	-2.047808483853259e-07	1.355312631988044e-07	2.162678518097318e-08	-3.406463005506138e-08	-1.734605070059486e-07
0.03	-0.003315339406052067	0.1289881464864505	0.9337454923475682	0.1959010335684143	-0.2212335322222873	-0.2450085748085965	-0.2928136421130345	0.2340154957447873	0.2340154957448105	0.1162171766867176	0.1731189130895259	0.09014279522880086	0.07277819333198161	-0.01545290316378237	-0.03447712094985412	-0.01434898209297063	0.1629577703536408	0.001293493335657627	0.04253884881179098	-0.1591132658168222	0.186418905467392	0.1864189054673919	-0.05228454448187173	0.003073867402581309	0.05250801597942487	0.01667632578767499	0.07992493861392878	-0.06823750558822914	0.00141574822437408	-0.228104468414944	0.1063790286173645	-0.05435801315330186	0.0009115431499993904	-29.91644389115207	-11.17118562979583	-20.3113454498756	-2.339310581863644	-4.417728644263317	-627.6181440004234	65.81198829895688	-0.4662858685121472	-1.09224603281292	-0.4628994714165289	5.14197559747732	0.03725625955925464	1.365454739256569	-5.019031988900835	5.913582205281589	5.913582205281442	-1.642099339271708	0.07376434550791049	1.667053482375418	0.5254810209248177	3.401288576836955e-08	2.209003872634795e-09	-2.081550276040202e-07	1.350536008443687e-07	2.627206067341379e-08	-7.701881569374259e-08	-1.742576112244242e-07
0.04	-0.003494463517426849	0.1285893652680342	0.933578654357768	0.1977874800233432	-0.2212194797054696	-0.2445157233373527	-0.2946508040171586	0.2361740792964704	0.2361740792964714	0.1156142481514128	0.1731540896080883	0.09075089813763518	0.07297023563385215	-0.02035223528226091	-0.04521113848980206	-0.0190113695406505	0.2140586388795079	0.001500197050095792	0.05596942618517347	-0.2079783197360259	0.2449993532038941	0.2449993532038934	-0.06817421527718169	0.003942714674505175	0.06903636958190877	0.02169099480766085	0.07631470174830304	-0.06411911864809161	0.001611361579712112	-0.2249919037096053	0.1031100682968012	-0.05535945004580458	0.004120626008229703	-29.93821194969364	-12.2563466487061	-20.9374063458473	-2.238205018118371	-4.126001556322249	-627.5655903288047	63.69493037217728	-0.5431383986880753	-1.056117180901117	-0.4750772004685829	5.128170340535996	-0.007450189842015931	1.316813280387649	-4.723690778324934	5.836518337188246	5.836518337188375	-1.520749586628255	0.1186879237062746	1.647249070663805	0.4658127051372786	3.574211583386138e-08	-1.479448693350668e-09	-2.109079531427852e-07	1.342193018186171e-07	3.086137841451386e-08	-1.199325890677207e-07	-1.745702748794778e-07
0.05	-0.003722206439380807	0.1280852730423143	0.9333652937903232	0.2001770655915858	-0.2212040156500993	-0.2438907165396497	-0.2969662727746489	0.238909700348394	0.2389097003484198	0.1148565313127932	0.1731977425547236	0.09152198349200297	0.07321100882435956	-0.02517596052965911	-0.05553971191973206	-0.02366073758768856	0.2635892342327735	0.001579694235264878	0.06896361981805281	-0.254786175631804	0.3018302113430633	0.3018302113430641	-0.08324698197025034	0.004766858611317444	0.08510530265427578	0.0264283434576827	0.07242653188980575	-0.0627643555692458	0.001856292167656671	-0.2221046725491747	0.09919636177192762	-0.05380218800842709	0.007537474078983533	-29.96501493819603	-13.41988130995495	-20.4267903446105	-2.363043341251471	-3.867394141740882	-627.8106323002997	63.96196768772341	-0.4489262644641209	-1.011082003851624	-0.4598899860646745	4.825120678030893	0.01370901825589214	1.280503087549789	-4.609944576172431	5.562165514420311	5.562165514420457	-1.482233527823714	0.06115181838362625	1.575409970382238	0.4723840165988475	3.407827055142906e-08	-5.405120148738902e-09	-1.904754818734384e-07	1.220723635461555e-07	3.284166909052046e-08	-1.564318591740444e-07	-1.579799511112646e-07
0.06	-0.003997573949149034	0.1274799241663321	0.9331054348665568	0.2030538804223998	-0.2211881447537814	-0.2431378116690448	-0.2997399424072947	0.2422047891741373	0.242204789174139	0.1139517481437881	0.1732490117786638	0.09245149708606697	0.07349809311569953	-0.02987715284495841	-0.06546246854223341	-0.02831104080493134	0.3115044913983996	0.001581565242829304	0.0815490407634079	-0.2996184947663259	0.356892907967798	0.3568929079678013	-0.09758748135041034	0.005465970136721808	0.1007220175210091	0.03095321497427048	0.06853836203108492	-0.0614095924904006	0.002101222755532519	-0.2192174413888867	0.09528265524699939	-0.05224492597106541	0.01095432214960743	-29.99606738986672	-14.54079567405109	-19.91822781046824	-2.47668458848877	-3.606664993768039	-627.3852164553217	64.08529403052479	-0.5186318122684064	-0.9749538194151554	-0.4752642345095457	4.805102703008082	-0.02297542536301133	1.235058742882856	-4.328583426073839	5.482886034301407	5.482886034301726	-1.374296124046418	0.09368144142468231	1.556805429537372	0.4233172784504754	3.227155893855782e-08	-9.340779767891461e-09	-1.690667833700658e-07	1.094491036212009e-07	3.471210599536523e-08	-1.926610449322564e-07	-1.406779226094401e-07
0.07000000000000001	-0.004319572758320091	0.1267773481137867	0.9327989710894323	0.2064021436129555	-0.2211727846037142	-0.2422613634941903	-0.3029519372022131	0.2460418795631857	0.2460418795632085	0.1129074859666282	0.1733069919524254	0.0935348972877003	0.07382919283184336	-0.03450285042188219	-0.07498712319665485	-0.03298717103297236	0.3578855077094534	0.001481912308611269	0.09366738096811757	-0.3424625947522312	0.4102332390829873	0.4102332390829958	-0.1111494799663398	0.00610739514393125	0.115881077138867	0.03523692796011168	0.06438114758041462	-0.05930645069464582	0.002346147497283519	-0.2165029983560469	0.09145539104527266	-0.05097789040114049	0.01457571548089829	-30.03059397091014	-15.67338373390827	-19.5471734598906	-2.557644782859132	-3.328689964235331	-627.3020290395749	63.89097573402207	-0.4315682380394255	-0.931371507184951	-0.4646448502996601	4.515208331009107	-0.00474270501127601	1.189261655852419	-4.214642865625968	5.215810604160813	5.215810604161314	-1.329844606787585	0.0459938160836418	1.483917449858708	0.4264152285374835	2.808756677906819e-08	-1.352191285838164e-08	-1.33937721664269e-07	8.387656457022422e-08	3.482765220289681e-08	-2.234151379625455e-07	-1.084861055704197e-07
